<mxfile host="app.diagrams.net" modified="2023-06-27T00:49:47.535Z" agent="Mozilla/5.0 (Macintosh; Intel Mac OS X 10_15_7) AppleWebKit/537.36 (KHTML, like Gecko) Chrome/114.0.0.0 Safari/537.36" version="21.2.9" etag="9l88bhlTOt019kHSvr04" type="github">
  <diagram name="PÃ¡gina-1" id="Wvs891NYgOILJAeQiz-p">
    <mxGraphModel>
      <root>
        <mxCell id="0" />
        <mxCell id="1" parent="0" />
      </root>
    </mxGraphModel>
  </diagram>
</mxfile>
